<?xml version="1.0" encoding="UTF-8" standalone="no"?>
<!-- Created with Inkscape (http://www.inkscape.org/) -->
<svg id="svg21558" xmlns:rdf="http://www.w3.org/1999/02/22-rdf-syntax-ns#" xmlns="http://www.w3.org/2000/svg" height="54.81" width="60.13" version="1.1" xmlns:cc="http://creativecommons.org/ns#" xmlns:dc="http://purl.org/dc/elements/1.1/">
 <defs id="defs21560">
  <filter id="filter21598" color-interpolation-filters="sRGB">
   <feFlood id="feFlood21600" result="flood" flood-color="rgb(0,0,0)" flood-opacity="0.3"/>
   <feComposite id="feComposite21602" operator="in" result="composite1" in2="SourceGraphic" in="flood"/>
   <feGaussianBlur id="feGaussianBlur21604" stdDeviation="0.05" result="blur"/>
   <feOffset id="feOffset21606" result="offset" dx="0.1" dy="0.1"/>
   <feComposite id="feComposite21608" operator="over" result="composite2" in2="offset" in="SourceGraphic"/>
  </filter>
  <filter id="filter21678" style="color-interpolation-filters:sRGB;">
   <feFlood id="feFlood21680" result="flood" flood-color="rgb(0,0,0)" flood-opacity="0.3"/>
   <feComposite id="feComposite21682" operator="in" result="composite1" in2="SourceGraphic" in="flood"/>
   <feGaussianBlur id="feGaussianBlur21684" result="blur" stdDeviation="0.05" in="composite"/>
   <feOffset id="feOffset21686" result="offset" dx="0.1" dy="0.1"/>
   <feComposite id="feComposite21688" operator="over" result="composite2" in2="offset" in="SourceGraphic"/>
  </filter>
 </defs>
 <metadata id="metadata21563">
  <rdf:RDF>
   <cc:Work rdf:about="">
    <dc:format>image/svg+xml</dc:format>
    <dc:type rdf:resource="http://purl.org/dc/dcmitype/StillImage"/>
    <dc:title/>
   </cc:Work>
  </rdf:RDF>
 </metadata>
 <g id="layer1" transform="translate(-320.65661,-353.9814)">
  <g id="g13865" filter="url(#filter21598)" transform="matrix(1.4401527,0,0,1.4401527,-87.150814,345.89769)">
   <g id="g13537" filter="url(#filter21678)" transform="matrix(1.0082066,0,0,1.0082066,-7.102999,3.6949964)">
    <path id="path13539" d="m290.55,31.093c3.5349,6.0025,14.73,8.8804,23.56,6.7931-1.585-4.587-3.091-6.3845-3.091-6.3845s-4.1938-0.40568-7.847-1.691c-4.6557,0.33879-9.2344,0.0568-13.677-1.2466,0.26812,0.93323,0.61547,1.7837,1.0544,2.529z" fill="#006c8c"/>
    <path id="path13541" d="m288.96,25.762c3.2764,1.2001,6.5071,1.4562,9.7051,1.3486-0.12818-0.15892-0.24602-0.33415-0.34512-0.50405-3.7921-6.501,3.3409-22.325,3.3409-22.325-8.9317,0.20173-13.638,12.696-12.701,21.48z" fill="#008dc6"/>
    <path id="path13543" d="M326.56,10.552c-3.53-6.0028-14.73-8.8807-23.56-6.7935,1.585,4.587,3.091,6.3845,3.091,6.3845s4.1938,0.40568,7.847,1.691c4.6557-0.33879,9.2344-0.0568,13.677,1.2466-0.26812-0.93323-0.61549-1.7837-1.0544-2.529z" fill="#8b8c8c"/>
    <path id="path13545" d="m328.15,15.882c-3.2764-1.2001-6.5072-1.4562-9.7051-1.3486,0.12818,0.15892,0.24601,0.33415,0.34511,0.50405,3.7921,6.501-3.3409,22.325-3.3409,22.325,8.9317-0.20174,13.638-12.696,12.701-21.48z" fill="#494949"/>
   </g>
  </g>
 </g>
</svg>
