<?xml version="1.0" encoding="UTF-8" standalone="no"?>
<!-- Created with Inkscape (http://www.inkscape.org/) -->

<svg
   xmlns:dc="http://purl.org/dc/elements/1.1/"
   xmlns:cc="http://creativecommons.org/ns#"
   xmlns:rdf="http://www.w3.org/1999/02/22-rdf-syntax-ns#"
   xmlns:svg="http://www.w3.org/2000/svg"
   xmlns="http://www.w3.org/2000/svg"
   xmlns:sodipodi="http://sodipodi.sourceforge.net/DTD/sodipodi-0.dtd"
   xmlns:inkscape="http://www.inkscape.org/namespaces/inkscape"
   id="svg4928"
   height="35.480106"
   width="102.90278"
   version="1.1"
   inkscape:version="0.48.4 r9939"
   sodipodi:docname="logo-blue.svg">
  <sodipodi:namedview
     pagecolor="#ffffff"
     bordercolor="#666666"
     borderopacity="1"
     objecttolerance="10"
     gridtolerance="10"
     guidetolerance="10"
     inkscape:pageopacity="0"
     inkscape:pageshadow="2"
     inkscape:window-width="1855"
     inkscape:window-height="1026"
     id="namedview1328"
     showgrid="false"
     fit-margin-top="0"
     fit-margin-left="0"
     fit-margin-right="0"
     fit-margin-bottom="0"
     inkscape:zoom="2.7988338"
     inkscape:cx="51.808678"
     inkscape:cy="18.330053"
     inkscape:window-x="65"
     inkscape:window-y="24"
     inkscape:window-maximized="1"
     inkscape:current-layer="svg4928" />
  <defs
     id="defs4930" />
  <metadata
     id="metadata4933">
    <rdf:RDF>
      <cc:Work
         rdf:about="">
        <dc:format>image/svg+xml</dc:format>
        <dc:type
           rdf:resource="http://purl.org/dc/dcmitype/StillImage" />
        <dc:title />
      </cc:Work>
    </rdf:RDF>
  </metadata>
  <g
     id="g12170"
     transform="translate(-288.84237,-3.0822745)">
    <g
       id="g12172">
      <path
         style="fill:#006c8c"
         inkscape:connector-curvature="0"
         id="path12174"
         d="m 290.55,31.093 c 3.5349,6.0025 14.73,8.8804 23.56,6.7931 -1.585,-4.587 -3.091,-6.3845 -3.091,-6.3845 0,0 -4.1938,-0.40568 -7.847,-1.691 -4.6557,0.33879 -9.2344,0.0568 -13.677,-1.2466 0.26812,0.93323 0.61547,1.7837 1.0544,2.529 z" />
      <path
         style="fill:#008dc6"
         inkscape:connector-curvature="0"
         id="path12176"
         d="m 288.96,25.762 c 3.2764,1.2001 6.5071,1.4562 9.7051,1.3486 -0.12818,-0.15892 -0.24602,-0.33415 -0.34512,-0.50405 -3.7921,-6.501 3.3409,-22.325 3.3409,-22.325 -8.9317,0.20173 -13.638,12.696 -12.701,21.48 z" />
      <path
         style="fill:#8b8c8c"
         inkscape:connector-curvature="0"
         id="path12178"
         d="M 326.56,10.552 C 323.03,4.5492 311.83,1.6713 303,3.7585 c 1.585,4.587 3.091,6.3845 3.091,6.3845 0,0 4.1938,0.40568 7.847,1.691 4.6557,-0.33879 9.2344,-0.0568 13.677,1.2466 -0.26812,-0.93323 -0.61549,-1.7837 -1.0544,-2.529 z" />
      <path
         style="fill:#494949"
         inkscape:connector-curvature="0"
         id="path12180"
         d="m 328.15,15.882 c -3.2764,-1.2001 -6.5072,-1.4562 -9.7051,-1.3486 0.12818,0.15892 0.24601,0.33415 0.34511,0.50405 3.7921,6.501 -3.3409,22.325 -3.3409,22.325 8.9317,-0.20174 13.638,-12.696 12.701,-21.48 z" />
    </g>
    <text
       sodipodi:linespacing="125%"
       id="text12182"
       style="font-size:28px;font-style:normal;font-variant:normal;font-weight:normal;font-stretch:normal;text-align:start;line-height:125%;letter-spacing:0px;word-spacing:0px;text-anchor:start;fill:#33352e;font-family:Latin Modern Mono"
       font-weight="normal"
       xml:space="preserve"
       font-size="28px"
       font-style="normal"
       font-stretch="normal"
       font-variant="normal"
       y="30.877769"
       x="334.67874"
       line-height="125%"><tspan
         id="tspan12184"
         style="font-size:28px;font-style:normal;font-variant:normal;font-weight:normal;font-stretch:normal;text-align:start;text-anchor:start;fill:#33352e;font-family:Mukti Narrow"
         font-weight="normal"
         font-size="28px"
         font-style="normal"
         font-stretch="normal"
         font-variant="normal"
         y="30.877769"
         x="334.67874">SGT</tspan></text>
  </g>
</svg>
